<svg width="1280" height="720" xmlns="http://www.w3.org/2000/svg" xmlns:xlink="http://www.w3.org/1999/xlink" overflow="hidden"><g><rect x="0" y="0" width="1280" height="720" fill="#FFFFFF"/><rect x="119" y="291" width="275" height="101" stroke="#000000" stroke-width="2" stroke-miterlimit="8" fill="#FFFFFF"/><text font-family="Aptos,Aptos_MSFontService,sans-serif" font-weight="400" font-size="24" transform="translate(208.54 349)">Ingeniero</text><rect x="886" y="291" width="275" height="101" stroke="#000000" stroke-width="2" stroke-miterlimit="8" fill="#FFFFFF"/><text font-family="Aptos,Aptos_MSFontService,sans-serif" font-weight="400" font-size="24" transform="translate(978.033 349)">Proyecto</text><path d="M504 341.5 640 279 776 341.5 640 404Z" stroke="#000000" stroke-width="2" stroke-miterlimit="8" fill="#FFFFFF" fill-rule="evenodd"/><text font-family="Aptos,Aptos_MSFontService,sans-serif" font-weight="400" font-size="24" transform="translate(593.987 349)">Participa</text><path d="M0 0 109.943 0.000104987" stroke="#000000" stroke-width="2" stroke-miterlimit="8" fill="none" fill-rule="evenodd" transform="matrix(1 0 0 -1 394 342)"/><path d="M776 342 885.943 342" stroke="#000000" stroke-width="2" stroke-miterlimit="8" fill="none" fill-rule="evenodd"/><text font-family="Aptos,Aptos_MSFontService,sans-serif" font-weight="400" font-size="24" transform="translate(619.29 267)">N:N</text><text font-family="Aptos,Aptos_MSFontService,sans-serif" font-weight="400" font-size="24" transform="translate(425.001 318)">(0,n)</text><text font-family="Aptos,Aptos_MSFontService,sans-serif" font-weight="400" font-size="24" transform="translate(803.65 324)">(0,n)</text><path d="M58.1192 164 180.881 164C196.963 164 210 178.103 210 195.5 210 212.897 196.963 227 180.881 227L58.1192 227C42.0371 227 29 212.897 29 195.5 29 178.103 42.0371 164 58.1192 164Z" stroke="#000000" stroke-width="2" stroke-miterlimit="8" fill="#FFFFFF" fill-rule="evenodd"/><text font-family="Aptos,Aptos_MSFontService,sans-serif" font-weight="400" font-size="24" transform="translate(60.0643 203)">IDIngeniero</text><path d="M59.9843 204.232 89.7343 204.232 119.484 204.232 149.234 204.232 178.984 204.232 178.984 205.232 149.234 205.232 119.484 205.232 89.7343 205.232 59.9843 205.232Z" fill-rule="evenodd"/><path d="M962.119 164 1084.88 164C1100.96 164 1114 178.103 1114 195.5 1114 212.897 1100.96 227 1084.88 227L962.119 227C946.037 227 933 212.897 933 195.5 933 178.103 946.037 164 962.119 164Z" stroke="#000000" stroke-width="2" stroke-miterlimit="8" fill="#FFFFFF" fill-rule="evenodd"/><text font-family="Aptos,Aptos_MSFontService,sans-serif" font-weight="400" font-size="24" transform="translate(966.699 203)">IDProyecto</text><path d="M966.213 204.232 994.713 204.232 1023.21 204.232 1051.71 204.232 1080.21 204.232 1080.21 205.232 1051.71 205.232 1023.21 205.232 994.713 205.232 966.213 205.232Z" fill-rule="evenodd"/><path d="M58.1192 456 180.881 456C196.963 456 210 470.103 210 487.5 210 504.897 196.963 519 180.881 519L58.1192 519C42.0371 519 29 504.897 29 487.5 29 470.103 42.0371 456 58.1192 456Z" stroke="#000000" stroke-width="2" stroke-miterlimit="8" fill="#FFFFFF" fill-rule="evenodd"/><text font-family="Aptos,Aptos_MSFontService,sans-serif" font-weight="400" font-size="24" transform="translate(77.0609 495)">Nombre</text><path d="M332.119 456 454.881 456C470.963 456 484 470.103 484 487.5 484 504.897 470.963 519 454.881 519L332.119 519C316.037 519 303 504.897 303 487.5 303 470.103 316.037 456 332.119 456Z" stroke="#000000" stroke-width="2" stroke-miterlimit="8" fill="#FFFFFF" fill-rule="evenodd"/><text font-family="Aptos,Aptos_MSFontService,sans-serif" font-weight="400" font-size="24" transform="translate(345.267 495)">Apellidos</text><path d="M332.119 164 454.881 164C470.963 164 484 178.103 484 195.5 484 212.897 470.963 227 454.881 227L332.119 227C316.037 227 303 212.897 303 195.5 303 178.103 316.037 164 332.119 164Z" stroke="#000000" stroke-width="2" stroke-miterlimit="8" fill="#FFFFFF" fill-rule="evenodd"/><text font-family="Aptos,Aptos_MSFontService,sans-serif" font-weight="400" font-size="24" transform="translate(357.517 203)">Salario</text><path d="M825.119 456 947.881 456C963.963 456 977 470.103 977 487.5 977 504.897 963.963 519 947.881 519L825.119 519C809.037 519 796 504.897 796 487.5 796 470.103 809.037 456 825.119 456Z" stroke="#000000" stroke-width="2" stroke-miterlimit="8" fill="#FFFFFF" fill-rule="evenodd"/><text font-family="Aptos,Aptos_MSFontService,sans-serif" font-weight="400" font-size="24" transform="translate(844.147 495)">Nombre</text><path d="M1099.12 456 1221.88 456C1237.96 456 1251 470.103 1251 487.5 1251 504.897 1237.96 519 1221.88 519L1099.12 519C1083.04 519 1070 504.897 1070 487.5 1070 470.103 1083.04 456 1099.12 456Z" stroke="#000000" stroke-width="2" stroke-miterlimit="8" fill="#FFFFFF" fill-rule="evenodd"/><text font-family="Aptos,Aptos_MSFontService,sans-serif" font-weight="400" font-size="24" transform="translate(1095.26 495)">Presupuesto</text><path d="M176.6 290.911 119 227" stroke="#000000" stroke-width="2" stroke-miterlimit="8" fill="none" fill-rule="evenodd"/><path d="M0 0 47.2692 63.9107" stroke="#000000" stroke-width="2" stroke-miterlimit="8" fill="none" fill-rule="evenodd" transform="matrix(1 0 0 -1 346 290.911)"/><path d="M0 0 81.6 63.9107" stroke="#000000" stroke-width="2" stroke-miterlimit="8" fill="none" fill-rule="evenodd" transform="matrix(-1 0 0 1 200.6 392)"/><path d="M393.457 455.911 317 392" stroke="#000000" stroke-width="2" stroke-miterlimit="8" fill="none" fill-rule="evenodd"/><path d="M1024 290.911 1024 227" stroke="#000000" stroke-width="2" stroke-miterlimit="8" fill="none" fill-rule="evenodd"/><path d="M0 0 58.5143 63.9107" stroke="#000000" stroke-width="2" stroke-miterlimit="8" fill="none" fill-rule="evenodd" transform="matrix(-1 0 0 1 944.514 392)"/><path d="M1160.8 456.237 1100 392" stroke="#000000" stroke-width="2" stroke-miterlimit="8" fill="none" fill-rule="evenodd"/></g></svg>