<svg width="1280" height="720" xmlns="http://www.w3.org/2000/svg" xmlns:xlink="http://www.w3.org/1999/xlink" overflow="hidden"><g><rect x="0" y="0" width="1280" height="720" fill="#FFFFFF"/><path d="M63.8473 131.924 213.485 131.924 213.485 170.857 63.8473 170.857Z" fill-rule="evenodd"/><path d="M213.485 131.924 322.506 131.924 322.506 170.857 213.485 170.857Z" fill-rule="evenodd"/><path d="M322.506 131.924 451.527 131.924 451.527 170.857 322.506 170.857Z" fill-rule="evenodd"/><path d="M451.527 131.924 549.943 131.924 549.943 170.857 451.527 170.857Z" fill-rule="evenodd"/><path d="M63.8473 170.857 213.485 170.857 213.485 209.79 63.8473 209.79Z" fill="#CBCBCB" fill-rule="evenodd"/><path d="M213.485 170.857 322.506 170.857 322.506 209.79 213.485 209.79Z" fill="#CBCBCB" fill-rule="evenodd"/><path d="M322.506 170.857 451.527 170.857 451.527 209.79 322.506 209.79Z" fill="#CBCBCB" fill-rule="evenodd"/><path d="M451.527 170.857 549.943 170.857 549.943 209.79 451.527 209.79Z" fill="#CBCBCB" fill-rule="evenodd"/><path d="M63.8473 209.79 213.485 209.79 213.485 248.724 63.8473 248.724Z" fill="#E7E7E7" fill-rule="evenodd"/><path d="M213.485 209.79 322.506 209.79 322.506 248.724 213.485 248.724Z" fill="#E7E7E7" fill-rule="evenodd"/><path d="M322.506 209.79 451.527 209.79 451.527 248.724 322.506 248.724Z" fill="#E7E7E7" fill-rule="evenodd"/><path d="M451.527 209.79 549.943 209.79 549.943 248.724 451.527 248.724Z" fill="#E7E7E7" fill-rule="evenodd"/><path d="M213.485 131.257 213.485 249.39" stroke="#FFFFFF" stroke-width="1.33333" stroke-linejoin="round" stroke-miterlimit="10" fill="none" fill-rule="evenodd"/><path d="M322.506 131.257 322.506 249.39" stroke="#FFFFFF" stroke-width="1.33333" stroke-linejoin="round" stroke-miterlimit="10" fill="none" fill-rule="evenodd"/><path d="M451.527 131.257 451.527 249.39" stroke="#FFFFFF" stroke-width="1.33333" stroke-linejoin="round" stroke-miterlimit="10" fill="none" fill-rule="evenodd"/><path d="M63.1807 170.857 550.609 170.857" stroke="#FFFFFF" stroke-width="4" stroke-linejoin="round" stroke-miterlimit="10" fill="none" fill-rule="evenodd"/><path d="M63.1807 209.79 550.609 209.79" stroke="#FFFFFF" stroke-width="1.33333" stroke-linejoin="round" stroke-miterlimit="10" fill="none" fill-rule="evenodd"/><path d="M63.8473 131.257 63.8473 249.39" stroke="#FFFFFF" stroke-width="1.33333" stroke-linejoin="round" stroke-miterlimit="10" fill="none" fill-rule="evenodd"/><path d="M549.943 131.257 549.943 249.39" stroke="#FFFFFF" stroke-width="1.33333" stroke-linejoin="round" stroke-miterlimit="10" fill="none" fill-rule="evenodd"/><path d="M63.1807 131.924 550.609 131.924" stroke="#FFFFFF" stroke-width="1.33333" stroke-linejoin="round" stroke-miterlimit="10" fill="none" fill-rule="evenodd"/><path d="M63.1807 248.724 550.609 248.724" stroke="#FFFFFF" stroke-width="1.33333" stroke-linejoin="round" stroke-miterlimit="10" fill="none" fill-rule="evenodd"/><g><text fill="#FFFFFF" font-family="Aptos,Aptos_MSFontService,sans-serif" font-weight="700" font-size="24" transform="translate(462.235 159)">Salario</text></g><g><text fill="#FFFFFF" font-family="Aptos,Aptos_MSFontService,sans-serif" font-weight="700" font-size="24" transform="translate(335.433 159)">Apellidos</text></g><g><text fill="#FFFFFF" font-family="Aptos,Aptos_MSFontService,sans-serif" font-weight="700" font-size="24" transform="translate(223.796 159)">Nombre</text></g><g><text fill="#FFFFFF" font-family="Aptos,Aptos_MSFontService,sans-serif" font-weight="700" font-size="24" transform="translate(75.5297 159)">IDIngeniero</text></g><text font-family="Aptos,Aptos_MSFontService,sans-serif" font-weight="400" font-size="24" transform="translate(475.068 198)">2000</text><text font-family="Aptos,Aptos_MSFontService,sans-serif" font-weight="400" font-size="24" transform="translate(365.85 198)">Doe</text><text font-family="Aptos,Aptos_MSFontService,sans-serif" font-weight="400" font-size="24" transform="translate(244.246 198)">John</text><text font-family="Aptos,Aptos_MSFontService,sans-serif" font-weight="400" font-size="24" transform="translate(132.25 198)">1</text><text font-family="Aptos,Aptos_MSFontService,sans-serif" font-weight="400" font-size="24" transform="translate(475.068 237)">1000</text><text font-family="Aptos,Aptos_MSFontService,sans-serif" font-weight="400" font-size="24" transform="translate(365.85 237)">Doe</text><text font-family="Aptos,Aptos_MSFontService,sans-serif" font-weight="400" font-size="24" transform="translate(244.616 237)">Jane</text><text font-family="Aptos,Aptos_MSFontService,sans-serif" font-weight="400" font-size="24" transform="translate(132.25 237)">2</text><path d="M730.057 131.924 874.362 131.924 874.362 170.857 730.057 170.857Z" fill-rule="evenodd"/><path d="M874.362 131.924 1003.28 131.924 1003.28 170.857 874.362 170.857Z" fill-rule="evenodd"/><path d="M1003.28 131.924 1171.96 131.924 1171.96 170.857 1003.28 170.857Z" fill-rule="evenodd"/><path d="M730.057 170.857 874.362 170.857 874.362 209.79 730.057 209.79Z" fill="#CBCBCB" fill-rule="evenodd"/><path d="M874.362 170.857 1003.28 170.857 1003.28 209.79 874.362 209.79Z" fill="#CBCBCB" fill-rule="evenodd"/><path d="M1003.28 170.857 1171.96 170.857 1171.96 209.79 1003.28 209.79Z" fill="#CBCBCB" fill-rule="evenodd"/><path d="M730.057 209.79 874.362 209.79 874.362 248.724 730.057 248.724Z" fill="#E7E7E7" fill-rule="evenodd"/><path d="M874.362 209.79 1003.28 209.79 1003.28 248.724 874.362 248.724Z" fill="#E7E7E7" fill-rule="evenodd"/><path d="M1003.28 209.79 1171.96 209.79 1171.96 248.724 1003.28 248.724Z" fill="#E7E7E7" fill-rule="evenodd"/><path d="M874.362 131.257 874.362 249.39" stroke="#FFFFFF" stroke-width="1.33333" stroke-linejoin="round" stroke-miterlimit="10" fill="none" fill-rule="evenodd"/><path d="M1003.28 131.257 1003.28 249.39" stroke="#FFFFFF" stroke-width="1.33333" stroke-linejoin="round" stroke-miterlimit="10" fill="none" fill-rule="evenodd"/><path d="M729.391 170.857 1172.63 170.857" stroke="#FFFFFF" stroke-width="4" stroke-linejoin="round" stroke-miterlimit="10" fill="none" fill-rule="evenodd"/><path d="M729.391 209.79 1172.63 209.79" stroke="#FFFFFF" stroke-width="1.33333" stroke-linejoin="round" stroke-miterlimit="10" fill="none" fill-rule="evenodd"/><path d="M730.057 131.257 730.057 249.39" stroke="#FFFFFF" stroke-width="1.33333" stroke-linejoin="round" stroke-miterlimit="10" fill="none" fill-rule="evenodd"/><path d="M1171.96 131.257 1171.96 249.39" stroke="#FFFFFF" stroke-width="1.33333" stroke-linejoin="round" stroke-miterlimit="10" fill="none" fill-rule="evenodd"/><path d="M729.391 131.924 1172.63 131.924" stroke="#FFFFFF" stroke-width="1.33333" stroke-linejoin="round" stroke-miterlimit="10" fill="none" fill-rule="evenodd"/><path d="M729.391 248.724 1172.63 248.724" stroke="#FFFFFF" stroke-width="1.33333" stroke-linejoin="round" stroke-miterlimit="10" fill="none" fill-rule="evenodd"/><text fill="#FFFFFF" font-family="Aptos,Aptos_MSFontService,sans-serif" font-weight="700" font-size="24" transform="translate(1018.53 159)">Presupuesto</text><text fill="#FFFFFF" font-family="Aptos,Aptos_MSFontService,sans-serif" font-weight="700" font-size="24" transform="translate(894.619 159)">Nombre</text><g><text fill="#FFFFFF" font-family="Aptos,Aptos_MSFontService,sans-serif" font-weight="700" font-size="24" transform="translate(741.836 159)">IDProyecto</text></g><text font-family="Aptos,Aptos_MSFontService,sans-serif" font-weight="400" font-size="24" transform="translate(1055.54 198)">20000</text><g><text font-family="Aptos,Aptos_MSFontService,sans-serif" font-weight="400" font-size="24" transform="translate(884.476 198)">Proyecto 1</text></g><text font-family="Aptos,Aptos_MSFontService,sans-serif" font-weight="400" font-size="24" transform="translate(795.793 198)">1</text><text font-family="Aptos,Aptos_MSFontService,sans-serif" font-weight="400" font-size="24" transform="translate(1055.54 237)">10000</text><g><text font-family="Aptos,Aptos_MSFontService,sans-serif" font-weight="400" font-size="24" transform="translate(884.476 237)">Proyecto 2</text></g><text font-family="Aptos,Aptos_MSFontService,sans-serif" font-weight="400" font-size="24" transform="translate(795.793 237)">2</text><path d="M490.133 360 643.124 360 643.124 398.933 490.133 398.933Z" fill-rule="evenodd"/><path d="M643.124 360 789.867 360 789.867 398.933 643.124 398.933Z" fill-rule="evenodd"/><path d="M490.133 398.933 643.124 398.933 643.124 437.867 490.133 437.867Z" fill="#CBCBCB" fill-rule="evenodd"/><path d="M643.124 398.933 789.867 398.933 789.867 437.867 643.124 437.867Z" fill="#CBCBCB" fill-rule="evenodd"/><path d="M490.133 437.867 643.124 437.867 643.124 476.8 490.133 476.8Z" fill="#E7E7E7" fill-rule="evenodd"/><path d="M643.124 437.867 789.867 437.867 789.867 476.8 643.124 476.8Z" fill="#E7E7E7" fill-rule="evenodd"/><path d="M490.133 476.8 643.124 476.8 643.124 515.733 490.133 515.733Z" fill="#CBCBCB" fill-rule="evenodd"/><path d="M643.124 476.8 789.867 476.8 789.867 515.733 643.124 515.733Z" fill="#CBCBCB" fill-rule="evenodd"/><path d="M643.124 359.333 643.124 516.4" stroke="#FFFFFF" stroke-width="1.33333" stroke-linejoin="round" stroke-miterlimit="10" fill="none" fill-rule="evenodd"/><path d="M489.466 398.933 790.533 398.933" stroke="#FFFFFF" stroke-width="4" stroke-linejoin="round" stroke-miterlimit="10" fill="none" fill-rule="evenodd"/><path d="M489.466 437.867 790.533 437.867" stroke="#FFFFFF" stroke-width="1.33333" stroke-linejoin="round" stroke-miterlimit="10" fill="none" fill-rule="evenodd"/><path d="M489.466 476.8 790.533 476.8" stroke="#FFFFFF" stroke-width="1.33333" stroke-linejoin="round" stroke-miterlimit="10" fill="none" fill-rule="evenodd"/><path d="M490.133 359.333 490.133 516.4" stroke="#FFFFFF" stroke-width="1.33333" stroke-linejoin="round" stroke-miterlimit="10" fill="none" fill-rule="evenodd"/><path d="M789.867 359.333 789.867 516.4" stroke="#FFFFFF" stroke-width="1.33333" stroke-linejoin="round" stroke-miterlimit="10" fill="none" fill-rule="evenodd"/><path d="M489.466 360 790.533 360" stroke="#FFFFFF" stroke-width="1.33333" stroke-linejoin="round" stroke-miterlimit="10" fill="none" fill-rule="evenodd"/><path d="M489.466 515.733 790.533 515.733" stroke="#FFFFFF" stroke-width="1.33333" stroke-linejoin="round" stroke-miterlimit="10" fill="none" fill-rule="evenodd"/><g><text fill="#FFFFFF" font-family="Aptos,Aptos_MSFontService,sans-serif" font-weight="700" font-size="24" transform="translate(656.122 387)">IDProyecto</text></g><g><text fill="#FFFFFF" font-family="Aptos,Aptos_MSFontService,sans-serif" font-weight="700" font-size="24" transform="translate(503.492 387)">IDIngeniero</text></g><text font-family="Aptos,Aptos_MSFontService,sans-serif" font-weight="400" font-size="24" transform="translate(710.079 426)">1</text><text font-family="Aptos,Aptos_MSFontService,sans-serif" font-weight="400" font-size="24" transform="translate(560.212 426)">1</text><text font-family="Aptos,Aptos_MSFontService,sans-serif" font-weight="400" font-size="24" transform="translate(710.079 465)">1</text><text font-family="Aptos,Aptos_MSFontService,sans-serif" font-weight="400" font-size="24" transform="translate(560.212 465)">2</text><text font-family="Aptos,Aptos_MSFontService,sans-serif" font-weight="400" font-size="24" transform="translate(710.079 504)">2</text><text font-family="Aptos,Aptos_MSFontService,sans-serif" font-weight="400" font-size="24" transform="translate(560.212 504)">1</text><text font-family="Aptos,Aptos_MSFontService,sans-serif" font-weight="400" font-size="24" transform="translate(73.4473 120)">Ingenieros</text><text font-family="Aptos,Aptos_MSFontService,sans-serif" font-weight="400" font-size="24" transform="translate(739.657 120)">Proyectos</text><text font-family="Aptos,Aptos_MSFontService,sans-serif" font-weight="400" font-size="24" transform="translate(499.733 348)">Participaciones</text></g></svg>